<?xml version="1.0" encoding="UTF-8" standalone="no"?>
<svg
   xmlns:dc="http://purl.org/dc/elements/1.1/"
   xmlns:cc="http://creativecommons.org/ns#"
   xmlns:rdf="http://www.w3.org/1999/02/22-rdf-syntax-ns#"
   xmlns:svg="http://www.w3.org/2000/svg"
   xmlns="http://www.w3.org/2000/svg"
   xmlns:sodipodi="http://sodipodi.sourceforge.net/DTD/sodipodi-0.dtd"
   xmlns:inkscape="http://www.inkscape.org/namespaces/inkscape"
   width="512px"
   version="1.1"
   height="512px"
   viewBox="0 0 64 64"
   enable-background="new 0 0 64 64"
   id="svg54"
   sodipodi:docname="file.svg"
   inkscape:version="0.92.2 (5c3e80d, 2017-08-06)">
  <metadata
     id="metadata60">
    <rdf:RDF>
      <cc:Work
         rdf:about="">
        <dc:format>image/svg+xml</dc:format>
        <dc:type
           rdf:resource="http://purl.org/dc/dcmitype/StillImage" />
        <dc:title></dc:title>
      </cc:Work>
    </rdf:RDF>
  </metadata>
  <defs
     id="defs58" />
  <sodipodi:namedview
     pagecolor="#ffffff"
     bordercolor="#666666"
     borderopacity="1"
     objecttolerance="10"
     gridtolerance="10"
     guidetolerance="10"
     inkscape:pageopacity="0"
     inkscape:pageshadow="2"
     inkscape:window-width="1080"
     inkscape:window-height="1857"
     id="namedview56"
     showgrid="false"
     inkscape:pagecheckerboard="true"
     showguides="true"
     inkscape:guide-bbox="true"
     inkscape:zoom="1.3037281"
     inkscape:cx="265.86459"
     inkscape:cy="46.511331"
     inkscape:window-x="-8"
     inkscape:window-y="-8"
     inkscape:window-maximized="1"
     inkscape:current-layer="g52">
    <sodipodi:guide
       position="15.532379,74.210258"
       orientation="1,0"
       id="guide145"
       inkscape:locked="false" />
  </sodipodi:namedview>
  <g
     id="g52">
    <path
       style="fill:#ffffff"
       inkscape:connector-curvature="0"
       id="path46"
       d="m 8.857,62.61 c 1.359,1.29 3.06,1.39 3.509,1.39 0.058,0 0.095,-0.002 0.107,-0.003 h 38.868 c 2.045,0 3.312,-0.842 4.014,-1.548 1.615,-1.627 1.646,-3.874 1.645,-4.11 V 13.057 c 0,-0.265 -0.054,-0.528 -0.156,-0.776 -0.104,-0.249 -0.252,-0.475 -0.44,-0.662 l -11,-11 C 45.215,0.431 44.99,0.282 44.741,0.179 44.493,0.075 44.228,0.022 43.965,0.022 H 12.474 c -2.037,0 -3.247,0.89 -3.903,1.636 C 7.067,3.366 7.163,5.752 7.224,6.423 v 51.916 c 0,2.25 0.887,3.565 1.633,4.271 z M 42.949,4.084 h 0.175 l 9.323,9.323 -7.494,0.002 c 10e-4,0.012 -0.865,0.012 -1.425,-0.52 -0.385,-0.366 -0.579,-0.993 -0.579,-1.864 z M 11.62,4.341 c 0.056,-0.064 0.226,-0.257 0.854,-0.257 h 26.412 v 6.942 c 0,2.525 1.002,4.008 1.842,4.808 1.599,1.521 3.644,1.639 4.193,1.639 0.069,0 0.115,-10e-4 0.134,-0.002 h 7.883 v 40.855 c -0.036,1.608 -1.211,1.608 -1.596,1.608 l -38.976,0.003 c -0.006,0 -0.455,-0.03 -0.715,-0.275 -0.316,-0.301 -0.363,-0.958 -0.363,-1.323 V 6.318 C 11.288,6.23 11.282,6.145 11.271,6.059 11.228,5.72 11.266,4.744 11.62,4.341 Z" />
    <path
       style="fill:#ffffff"
       inkscape:connector-curvature="0"
       id="path48"
       d="M 17.694,48.622 H 31.97 c 1.124,0 2.032,-0.91 2.032,-2.032 0,-1.121 -0.908,-2.031 -2.032,-2.031 H 17.694 c -1.123,0 -2.032,0.91 -2.032,2.031 0,1.122 0.909,2.032 2.032,2.032 z" />
    <path
       style="fill:#ffffff;stroke-width:1"
       inkscape:connector-curvature="0"
       id="path48-1"
       d="m 17.694633,38.034865 h 14.276 c 1.124,0 2.032,-0.91 2.032,-2.032 0,-1.121 -0.908,-2.031 -2.032,-2.031 h -14.276 c -1.123,0 -2.032,0.91 -2.032,2.031 0,1.122 0.909,2.032 2.032,2.032 z" />
    <path
       style="fill:#ffffff;stroke-width:1"
       inkscape:connector-curvature="0"
       id="path48-2"
       d="m 17.598753,27.679946 h 14.276 c 1.124,0 2.032,-0.91 2.032,-2.032 0,-1.121 -0.908,-2.031 -2.032,-2.031 h -14.276 c -1.123,0 -2.032,0.91 -2.032,2.031 0,1.122 0.909,2.032 2.032,2.032 z" />
  </g>
</svg>
