<?xml version="1.0" encoding="utf-8"?>
<!DOCTYPE svg PUBLIC "-//W3C//DTD SVG 1.1//EN" "http://www.w3.org/Graphics/SVG/1.1/DTD/svg11.dtd">
<svg xmlns="http://www.w3.org/2000/svg" xmlns:xlink="http://www.w3.org/1999/xlink" width="512px" version="1.1" height="512px" viewBox="0 0 64 64" enable-background="new 0 0 64 64">
  <g>
    <g fill="#1D1D1B">
      <path d="m64,10.978c0-3.336-2.691-6.049-6-6.049h-6.348v-2.912c0-1.115-0.895-2.017-2-2.017-1.105,0-2,0.902-2,2.017v2.912h-31.394v-2.912c0-1.115-0.895-2.017-2-2.017s-2,0.902-2,2.017v2.912h-6.258c-3.309,0-6,2.713-6,6.049v9.209c0,0.11 0.045,0.205 0.063,0.311-0.018,0.106-0.063,0.201-0.063,0.311 0,0.003 0.002,0.008 0.002,0.011 0,0.005-0.002,0.009-0.002,0.013v37.119c0,3.335 2.691,6.048 6,6.048h52c3.309,0 6-2.713 6-6.049v-37.118c0-0.004-0.002-0.008-0.002-0.012 0-0.003 0.002-0.008 0.002-0.011 0-0.11-0.045-0.205-0.063-0.312 0.018-0.106 0.063-0.201 0.063-0.311v-9.209zm-4,46.973c0,1.112-0.896,2.016-2,2.016h-52c-1.104,0-2-0.904-2-2.016v-35.126h56v35.126zm0-39.159h-56v-7.815c0-1.113 0.896-2.017 2-2.017h6.258v2.913c0,1.114 0.895,2.016 2,2.016s2-0.902 2-2.016v-2.912h31.395v2.913c0,1.114 0.895,2.016 2,2.016 1.106,0 2-0.902 2-2.016v-2.913h6.347c1.104,0 2,0.904 2,2.017v7.814z" fill="#FFFFFF"/>
      <ellipse cx="21.182" cy="33.828" rx="2" ry="2.016" fill="#FFFFFF"/>
      <ellipse cx="30.852" cy="33.828" rx="2" ry="2.016" fill="#FFFFFF"/>
      <ellipse cx="41.662" cy="33.828" rx="2" ry="2.016" fill="#FFFFFF"/>
      <ellipse cx="52.697" cy="33.828" rx="2" ry="2.016" fill="#FFFFFF"/>
      <ellipse cx="11.303" cy="40.806" rx="2" ry="2.016" fill="#FFFFFF"/>
      <ellipse cx="21.182" cy="40.806" rx="2" ry="2.016" fill="#FFFFFF"/>
      <ellipse cx="30.852" cy="40.806" rx="2" ry="2.016" fill="#FFFFFF"/>
      <ellipse cx="41.662" cy="40.806" rx="2" ry="2.016" fill="#FFFFFF"/>
      <ellipse cx="52.697" cy="40.806" rx="2" ry="2.016" fill="#FFFFFF"/>
      <ellipse cx="11.303" cy="47.755" rx="2" ry="2.016" fill="#FFFFFF"/>
      <ellipse cx="21.182" cy="47.755" rx="2" ry="2.016" fill="#FFFFFF"/>
      <ellipse cx="30.852" cy="47.755" rx="2" ry="2.016" fill="#FFFFFF"/>
      <ellipse cx="41.662" cy="47.755" rx="2" ry="2.016" fill="#FFFFFF"/>
      <ellipse cx="52.697" cy="47.755" rx="2" ry="2.016" fill="#FFFFFF"/>
      <ellipse cx="11.303" cy="54.734" rx="2" ry="2.016" fill="#FFFFFF"/>
      <ellipse cx="21.182" cy="54.734" rx="2" ry="2.016" fill="#FFFFFF"/>
      <ellipse cx="30.852" cy="54.734" rx="2" ry="2.016" fill="#FFFFFF"/>
    </g>
  </g>
</svg>
