<?xml version="1.0" encoding="utf-8"?>
<!DOCTYPE svg PUBLIC "-//W3C//DTD SVG 1.1//EN" "http://www.w3.org/Graphics/SVG/1.1/DTD/svg11.dtd">
<svg xmlns="http://www.w3.org/2000/svg" xmlns:xlink="http://www.w3.org/1999/xlink" width="512px" version="1.1" height="512px" viewBox="0 0 64 64" enable-background="new 0 0 64 64">
  <g>
    <path fill="#FFFFFF" d="m50.25,2.012c-0.257-0.082-6.366-2.012-12.636-2.012-9.04,0-14.093,4.098-14.224,11.574v13.033h-7.87c-0.535,0-1.049,0.215-1.426,0.596-0.375,0.383-0.582,0.898-0.574,1.434l.176,11.881c0.016,1.094 0.906,1.971 2,1.971h7.695v21.511c0,1.105 0.895,2 2,2h11.673c1.104,0 2-0.895 2-2v-21.512h5.906c0.914,0 1.712-0.619 1.938-1.506l3.034-11.881c0.153-0.598 0.021-1.232-0.358-1.721s-0.962-0.773-1.579-0.773h-8.945l-.003-7.824c0.205-0.25 1.061-0.76 3.198-0.76 1.813,0 4.132,0.359 6.888,1.072 0.599,0.148 1.236,0.023 1.725-0.357 0.489-0.377 0.775-0.961 0.775-1.58v-11.242c-0.001-0.869-0.564-1.641-1.393-1.904zm-2.608,10.631c-2.037-0.412-3.843-0.619-5.388-0.619-6.849,0-7.18,4.156-7.194,4.455v10.129c0,1.105 0.896,2 2,2h8.369l-2.013,7.881h-6.353c-1.104,0-2,0.895-2,2v21.511h-7.673v-21.512c0-1.105-0.896-2-2-2h-7.725l-.117-7.881h7.842c1.104,0 2-0.895 2-2v-14.998c0.058-3.267 1.181-7.609 10.224-7.609 3.964,0 7.979,0.893 10.027,1.43v7.213z"/>
  </g>
</svg>
