<?xml version="1.0" encoding="UTF-8" standalone="no"?>
<!-- Generator: Adobe Illustrator 16.0.3, SVG Export Plug-In . SVG Version: 6.00 Build 0)  -->
<svg id="Calque_1" xmlns:rdf="http://www.w3.org/1999/02/22-rdf-syntax-ns#" xmlns="http://www.w3.org/2000/svg" enable-background="new 0 0 841.89 595.275" xml:space="preserve" height="345.51" viewBox="0 0 413.75466 345.51097" width="413.75" version="1.1" y="0px" x="0px" xmlns:cc="http://creativecommons.org/ns#" xmlns:dc="http://purl.org/dc/elements/1.1/"><metadata id="metadata4386"><rdf:RDF><cc:Work rdf:about=""><dc:format>image/svg+xml</dc:format><dc:type rdf:resource="http://purl.org/dc/dcmitype/StillImage"/><dc:title/></cc:Work></rdf:RDF></metadata><path id="path4370" d="m216.09 336.65c-64.73-31.47-170.39 4.38-215.66-102-5.7893-41.04 47.605-96.29 98.087-85.14-9.023 0.855-18.311 2.539-28.787 7.572 9.387 5.35 20.33-4.148 33.494-3.805 16.238 0.425 43.915 12.791 36.764 15.621-30.774-15.534-116.06 14.753-107.22 59.491 4.246 21.48 32.261 47.03 43.299 54.455 40.009 26.936 111.49 17.639 140.03 53.807z" fill-rule="evenodd" clip-rule="evenodd" fill="#b2dbed"/><path id="path4372" d="m236.73 345.51c-50.996-38.846-150.75-26.66-170.44-126.95 2.679-36.604 60.109-74.943 102.4-56.247-8.087-0.878-16.589-1.08-26.748 1.408 7.238 6.314 18.664 0.041 30.186 2.692 14.199 3.269 36.203 18.938 29.382 20.109-24.141-18.963-104.91-7.958-105.59 32.397-0.332 19.373 19.479 46.527 27.793 54.931 30.098 30.497 94.744 35.223 113.01 71.664z" fill-rule="evenodd" clip-rule="evenodd" fill="#0e71b4"/><g id="g4374" transform="translate(-210.5 -107.2)"><path id="path4376" fill="#868889" d="m497.68 137.23c19.976 49.872 30.876 85.535 32.701 106.99 8.158 51.265 4.62 94.77-10.616 130.52-14.279 33.507-35.935 58.128-64.962 73.876l-1.121-0.478 0.546-1.281 1.599-0.644-8.483-3.615 1.568-3.682 1.121 0.479c4.286-4.731 7.935-7.526 10.948-8.384l1.667-0.804-3.714 5.605-0.545 1.281c1.279 0.545 4.108-1.652 8.484-6.597l0.478-1.12-1.121-0.479-1.757 0.577c13.086-14.727 22.061-27.793 26.927-39.213l4.517-14.15 3.396-4.416c4.46-16.38 6.104-24.821 4.929-25.323 5.486-29.436 7.493-45.537 6.027-48.308-0.449-50.122-2.844-83.106-7.188-98.954-6.787-28.739-11.044-43.604-12.769-44.593-9.452-27.227-16.362-41.775-20.739-43.64l1.568-3.681 7.908 1.857 1.281 0.546 0.734 1.826 4.228 0.289 12.388 25.519zm8.452 228.67-0.546 1.28-2.403 9.188 1.119 0.478 2.114-4.961 0.997-5.439-1.281-0.546z"/></g><g id="g4378" transform="translate(-210.5 -107.2)"><path id="path4380" fill="#0e71b4" d="m617.78 252.52 1.233 3.547 1.385 0.636 0.675 1.08 3.178 6.653-2.035 1.274c-2.31-3.691-13.595-9.651-33.854-17.883-1.077-1.458-11.915-5.195-32.514-11.212-11.505-3.821-33.812-6.203-66.92-7.148-2.187-1.261-12.291 0.24-30.312 4.506-0.622-0.992-5.773 0.292-15.453 3.846l-2.068 2.797-8.199 3.628c-6.313 3.952-12.699 11.329-19.158 22.133l-0.058-1.468-0.591-0.944-0.619 0.387c-2.174 3.614-2.922 5.96-2.245 7.042l0.707-0.443 2.772-3.049-0.117 1.388c0.18 2.518-0.757 5.546-2.813 9.086l0.59 0.944-2.034 1.274-4.477-7.153-0.03 1.333-0.708 0.442-0.59-0.944c3.191-24.162 14.049-42.04 32.576-53.635 19.769-12.37 47.533-14.846 83.3-7.423 14.575 1.774 40.749 11.319 78.517 28.633l19.862 10.673zm-173.16-21.433-3.335 0.772-2.743 1.717 0.592 0.944 5.454-1.911 0.709-0.443-0.677-1.079z"/></g></svg>
