<?xml version="1.0" encoding="UTF-8"?>
<svg width="13.483" height="14.03" enable-background="new 0 0 20 20" version="1.1" viewBox="0 0 13.483 14.03" xml:space="preserve" xmlns="http://www.w3.org/2000/svg" xmlns:cc="http://creativecommons.org/ns#" xmlns:dc="http://purl.org/dc/elements/1.1/" xmlns:rdf="http://www.w3.org/1999/02/22-rdf-syntax-ns#"><metadata><rdf:RDF><cc:Work rdf:about=""><dc:format>image/svg+xml</dc:format><dc:type rdf:resource="http://purl.org/dc/dcmitype/StillImage"/><dc:title/></cc:Work></rdf:RDF></metadata>

<g transform="translate(-3.108,-2.735)">
	<g fill="none" stroke="#fff" stroke-linecap="round" stroke-linejoin="round" stroke-miterlimit="10" stroke-width=".7">
		
			<path d="m4.727 6.521c-0.441 0.402-0.881 0.805-1.318 1.204v8.673c0.672 0.015 1.37-0.013 2.094 0.017l8.374 6e-3 2.414 0.044c0-0.651-0.062-5.917-0.049-8.431 0 0-0.731-0.604-1.486-1.283 0-0.973-6e-3 -2.582-6e-3 -3.716h-9.816l-0.031 5.993"/><g clip-rule="evenodd" fill-rule="evenodd">
		
			<path d="m3.409 7.725c2.145 1.876 4.343 3.768 6.436 5.584 2.791-2.369 4.313-3.56 6.397-5.275"/>
		
			<path d="m12.636 6.197h-5.583"/>
		
			<path d="m12.636 7.818h-5.583"/>
		
			<path d="m11.706 12.196c1.553 1.488 3.182 2.881 4.585 4.269"/>
		
			<path d="m8.009 12.088c-1.133 1.081-2.813 2.616-4.601 4.311"/>
		
			<path d="m14.756 6.521 0.025 2.595"/>
	</g></g>
</g>
</svg>
