<?xml version="1.0" encoding="utf-8"?>
<!DOCTYPE svg PUBLIC "-//W3C//DTD SVG 1.1//EN" "http://www.w3.org/Graphics/SVG/1.1/DTD/svg11.dtd">
<svg xmlns="http://www.w3.org/2000/svg" xmlns:xlink="http://www.w3.org/1999/xlink" width="512px" version="1.1" height="512px" viewBox="0 0 64 64" enable-background="new 0 0 64 64">
  <g>
    <g fill="#1D1D1B">
      <path d="M32.23,0C14.722,0,0.479,14.244,0.479,31.751S14.722,63.503,32.23,63.503s31.751-14.244,31.751-31.751    S49.739,0,32.23,0z M11.332,49.815c-3.011-3.478-5.181-7.7-6.164-12.363c0.227-0.051,0.452-0.122,0.655-0.254    c1.312-0.839,3.735-1.761,4.689-1.241c0.513,0.281,0.819,1.343,0.819,2.839V49.815z M32.23,59.41    c-6.353,0-12.194-2.175-16.87-5.79c0.019-0.109,0.063-0.208,0.063-0.321V38.796c0-3.196-0.991-5.359-2.945-6.429    c-2.687-1.468-6.123-0.082-7.834,0.803c-0.023-0.472-0.072-0.939-0.072-1.418C4.572,16.5,16.979,4.093,32.23,4.093    S59.889,16.5,59.889,31.751S47.482,59.41,32.23,59.41z" fill="#FFFFFF"/>
      <path d="m57.011,22.719c-0.39-1.412-1.811-2.629-4.499-4.837-1.477-1.212-4.547-3.733-4.771-4.705-0.392-2.547-2.8-5.151-17.678-5.151l-1.416,.008c-0.238,0.003-0.477,0.047-0.7,0.132-0.301,0.113-7.326,2.838-8.222,9.432-0.508,3.708-0.54,4.745-0.531,4.946 0,3.619 2.558,10.463 12.237,10.463 0.725,0 1.479-0.039 2.262-0.116 1.031,2.304 1.968,4.846 1.968,5.755 0,0.196 0.03,0.393 0.085,0.582 0.578,1.946 1.346,5.678 0.958,7.41-0.04,0.179-0.057,0.363-0.048,0.546 0.147,3.054 1.66,6.136 4.712,6.136 1.964,0 4.049-1.317 6.562-4.145 0.196-0.219 0.34-0.48 0.428-0.763 0.439-1.444 4.145-13.954 2.886-20.812 0.145-0.457 0.339-1.144 0.512-1.985 0.179,0.032 0.365,0.065 0.543,0.101 0.688,0.127 1.395,0.261 2.031,0.261h0.002c1.26,0 1.943-0.551 2.296-1.014 0.275-0.361 0.69-1.135 0.383-2.244zm-9.081,.982c-0.228,1.747-0.712,3.024-0.713,3.031-0.15,0.389-0.178,0.814-0.082,1.219 1.106,4.583-1.362,14.751-2.564,18.835-2.013,2.187-2.975,2.415-3.167,2.438-0.263-0.25-0.558-1.19-0.645-2.017 0.536-3.068-0.672-7.674-1.019-8.896-0.189-2.672-2.506-7.548-2.985-8.534-0.393-0.807-1.266-1.266-2.15-1.127-1.129,0.174-2.196,0.262-3.174,0.262-7.813,0-8.133-5.733-8.145-6.384 0-0.035 0.016-0.88 0.491-4.379 0.485-3.562 4.223-5.524 5.315-6.025l.97-.006c11.053,0 13.335,1.547 13.659,1.831 0.427,2.218 2.741,4.261 6.194,7.096 0.151,0.125 0.316,0.259 0.483,0.398-1.617,0.184-2.342,1.294-2.468,2.258z" fill="#FFFFFF"/>
    </g>
  </g>
</svg>
