<?xml version="1.0" encoding="utf-8"?>
<!DOCTYPE svg PUBLIC "-//W3C//DTD SVG 1.1//EN" "http://www.w3.org/Graphics/SVG/1.1/DTD/svg11.dtd">
<svg xmlns="http://www.w3.org/2000/svg" xmlns:xlink="http://www.w3.org/1999/xlink" width="512px" version="1.1" height="512px" viewBox="0 0 64 64" enable-background="new 0 0 64 64">
  <g>
    <g fill="#1D1D1B">
      <path d="m32.541,10.434c-7.9,0-14.326,6.426-14.326,14.324 0,1.104 0.895,2 2,2s2-0.896 2-2c0-5.692 4.633-10.324 10.326-10.324 5.691,0 10.322,4.632 10.322,10.324s-4.631,10.324-10.322,10.324c-1.105,0-2,0.896-2,2v7.731c0,1.104 0.895,2 2,2s2-0.896 2-2v-5.871c6.953-0.976 12.322-6.965 12.322-14.185 0-7.898-6.425-14.323-14.322-14.323z" fill="#FFFFFF"/>
      <circle cx="32.539" cy="52.404" r="2.189" fill="#FFFFFF"/>
    </g>
  </g>
</svg>
