<?xml version="1.0" encoding="UTF-8" standalone="no"?>
<svg
   xmlns:dc="http://purl.org/dc/elements/1.1/"
   xmlns:cc="http://creativecommons.org/ns#"
   xmlns:rdf="http://www.w3.org/1999/02/22-rdf-syntax-ns#"
   xmlns:svg="http://www.w3.org/2000/svg"
   xmlns="http://www.w3.org/2000/svg"
   viewBox="0 0 259.98043 425.69052"
   height="425.69052"
   width="259.98044"
   xml:space="preserve"
   id="svg10"
   version="1.1"><metadata
     id="metadata16"><rdf:RDF><cc:Work
         rdf:about=""><dc:format>image/svg+xml</dc:format><dc:type
           rdf:resource="http://purl.org/dc/dcmitype/StillImage" /><dc:title></dc:title></cc:Work></rdf:RDF></metadata><defs
     id="defs14"><clipPath
       id="clipPath26"
       clipPathUnits="userSpaceOnUse"><path
         id="path24"
         d="M 0,595.275 H 841.89 V 0 H 0 Z" /></clipPath></defs><g
     transform="matrix(1.3333333,0,0,-1.3333333,-101.88933,609.69518)"
     id="g18"><g
       id="g22"
       clip-path="url(#clipPath26)"><g
         id="g3861"><g
           transform="translate(200.3467,140.2305)"
           id="g62"><path
             id="path64"
             style="fill:#3871c1;fill-opacity:1;fill-rule:nonzero;stroke:none"
             d="m 0,0 c 17.996,10.978 32.605,22.42 23.693,53.764 -10.151,35.695 -52.947,64.163 -61.7,86.254 -8.75,22.088 -1.506,38.627 -1.506,38.627 0,0 -5.853,-12.451 -2.762,-33.091 3.091,-20.635 13.209,-37.864 31.01,-58.805 C 6.543,65.818 17.006,48.469 18.512,31.887 20.007,15.295 7.658,5.906 -3.925,-2.227" /></g><g
           transform="translate(201.043,287.3701)"
           id="g66"><path
             id="path68"
             style="fill:#f79123;fill-opacity:1;fill-rule:nonzero;stroke:none"
             d="m 0,0 c 0,0 13.932,13.798 4.521,42.843 -9.4,29.045 -16.482,39.365 -17.888,49.829 -1.405,10.471 3.082,16.31 3.082,16.31 0,0 -13.007,-14.814 -4.078,-41.884 C -5.432,40.03 7.695,13.443 0,0" /></g><g
           transform="translate(131.5977,456.6094)"
           id="g70"><path
             id="path72"
             style="fill:#f79123;fill-opacity:1;fill-rule:nonzero;stroke:none"
             d="m 0,0 c 20.899,-3.859 38.872,-9.646 43.134,-46.232 4.845,-41.669 -23.169,-89.619 -22.44,-116.453 0.735,-26.832 15.02,-44.657 15.02,-44.657 0,0 -11.384,14.138 -16.743,37.05 -5.358,22.912 -2.902,45.239 5.141,74.706 8.05,29.467 10.776,52.058 5.57,70.054 C 24.467,-7.525 9.388,-2.938 -4.49,0.662" /></g><g
           transform="translate(207.542,334.4492)"
           id="g74"><path
             id="path76"
             style="fill:#3871c1;fill-opacity:1;fill-rule:nonzero;stroke:none"
             d="m 0,0 c 0,0 23.039,-28.065 -28.61,-101.088 -51.655,-73.022 -81.053,-27.768 -89.369,-19.558 0,0 28.259,-45.673 70.477,-17.518 C -5.286,-110.008 22.141,-30.945 0,0" /></g><g
           transform="translate(76.417,195.5322)"
           id="g78"><path
             id="path80"
             style="fill:#7b7979;fill-opacity:1;fill-rule:nonzero;stroke:none"
             d="m 0,0 c 0,0 14.295,-12.492 67.385,30.866 53.091,43.356 81.531,32.708 120.477,10.751 0,0 -55.826,33.528 -101.98,-6.529 C 50.924,4.744 19.33,-8.369 0,0" /></g><g
           transform="translate(265.6162,235.2539)"
           id="g82"><path
             id="path84"
             style="fill:#7b7979;fill-opacity:1;fill-rule:nonzero;stroke:none"
             d="m 0,0 c 0,0 14.308,-14.097 -22.893,-21.268 0,0 44.149,6.185 22.893,21.268" /></g><g
           transform="translate(196.7588,296.1719)"
           id="g86"><path
             id="path88"
             style="fill:#ed1c24;fill-opacity:1;fill-rule:nonzero;stroke:none"
             d="m 0,0 c -0.896,-9.907 -7.69,-17.377 -15.179,-16.7 -7.488,0.676 -12.834,9.241 -11.938,19.151 0.891,9.863 7.685,17.342 15.175,16.666 C -4.455,18.44 0.891,9.865 0,0" /></g></g></g></g></svg>