<?xml version="1.0" encoding="utf-8"?>
<!DOCTYPE svg PUBLIC "-//W3C//DTD SVG 1.1//EN" "http://www.w3.org/Graphics/SVG/1.1/DTD/svg11.dtd">
<svg xmlns="http://www.w3.org/2000/svg" xmlns:xlink="http://www.w3.org/1999/xlink" width="512px" version="1.1" height="512px" viewBox="0 0 64 64" enable-background="new 0 0 64 64">
  <g>
    <g fill="#1D1D1B">
      <path d="m1.172,61.564c0.244,0.129 0.509,0.271 1.028,0.271 1.65-0.002 5.869-1.416 20.096-9.092 0.848,0.191 1.317,0.334 1.962,0.533l.957,.289c1.081,0.312 2.199-0.299 2.516-1.367 0.314-1.064-0.301-2.184-1.372-2.498l-.905-.271c-0.855-0.261-1.527-0.469-3.062-0.779-0.47-0.098-0.954-0.024-1.374,0.203-4.908,2.655-10.474,5.489-14.303,7.247 0.58-0.747 1.172-1.496 1.679-2.139 4.375-5.543 5.376-6.986 5.175-8.438-0.074-0.538-0.438-1.159-0.878-1.482-5.504-4.012-8.537-9.388-8.537-15.136 0-11.6 12.495-21.037 27.853-21.037s27.853,9.437 27.853,21.036c0,1.113 0.908,2.014 2.024,2.014 1.118,0 2.026-0.9 2.026-2.014 0-13.818-14.313-25.062-31.905-25.062s-31.902,11.244-31.902,25.062c-1.54043e-15,6.517 3.253,12.803 8.982,17.453-0.872,1.31-2.624,3.527-3.88,5.119-4.524,5.734-5.468,7.105-5.149,8.602 0.123,0.582 0.59,1.205 1.116,1.486z" fill="#FFFFFF"/>
      <path d="m63.864,44.653c0-7.348-7.487-13.325-16.69-13.325-9.202,0-16.689,5.978-16.689,13.325 0,7.138 7.062,12.983 15.903,13.313 1.698,1.406 6.705,4.936 15.243,6.018 0.085,0.01 0.179,0.016 0.264,0.016 0.728,0 1.437-0.405 1.797-1.032 0.709-1.225 0.272-1.962-2.137-6.052-0.572-0.972-1.411-2.4-1.931-3.369 2.713-2.428 4.24-5.601 4.24-8.894zm-7.817,6.601c-1.763,1.282-0.889,2.768 2.011,7.693 0.06,0.102 0.118,0.201 0.183,0.305-6.427-1.635-9.6-4.674-9.631-4.703-0.38-0.379-0.898-0.594-1.436-0.594-6.968,0-12.637-4.173-12.637-9.302 0-5.128 5.669-9.3 12.637-9.3 6.969,0 12.64,4.172 12.64,9.3-0.001,2.486-1.341,4.832-3.767,6.601z" fill="#FFFFFF"/>
    </g>
  </g>
</svg>
