<?xml version="1.0" encoding="utf-8"?>
<!DOCTYPE svg PUBLIC "-//W3C//DTD SVG 1.1//EN" "http://www.w3.org/Graphics/SVG/1.1/DTD/svg11.dtd">
<svg xmlns="http://www.w3.org/2000/svg" xmlns:xlink="http://www.w3.org/1999/xlink" width="512px" version="1.1" height="512px" viewBox="0 0 64 64" enable-background="new 0 0 64 64">
  <g>
    <path fill="#FFFFFF" d="m4.629,48.049c0.004,0 0.012,0 0.016,0 0.196,0.094 0.643,0.779 0.596,1.924l-.419,9.881c-0.059,1.418 0.276,2.516 0.995,3.264 0.548,0.568 1.285,0.882 2.078,0.882 1.019,0 2.033-0.498 3.021-1.48l12.247-12.217c1.175-1.174 3.767-2.242 5.432-2.242h29.386c3.32,0 6.021-2.691 6.021-6v-32.053c0-3.309-2.7-6.001-6.021-6.001h-51.962c-3.32,8.88178e-16-6.019,2.692-6.019,6.001v32.053c0,3.357 2.059,5.988 4.629,5.988zm-.617-38.041c0-1.104 0.899-2 2.007-2h51.961c1.108,0 2.008,0.896 2.008,2v32.053c0,1.104-0.899,2-2.008,2h-29.386c-2.761,0-6.317,1.467-8.271,3.414l-11.443,11.416 .37-8.75c0.078-1.891-0.509-3.635-1.618-4.785-0.797-0.83-1.827-1.289-2.854-1.289-0.008,0-0.016,0-0.023,0-0.212-0.08-0.743-0.795-0.743-2.006v-32.053z"/>
  </g>
</svg>
