<?xml version="1.0" encoding="utf-8"?>
<!DOCTYPE svg PUBLIC "-//W3C//DTD SVG 1.1//EN" "http://www.w3.org/Graphics/SVG/1.1/DTD/svg11.dtd">
<svg xmlns="http://www.w3.org/2000/svg" xmlns:xlink="http://www.w3.org/1999/xlink" width="512px" version="1.1" height="512px" viewBox="0 0 64 64" enable-background="new 0 0 64 64">
  <g>
    <g>
      <g fill="#1D1D1B">
        <path d="m37.635,41.44c-0.542,0-1.088,0.257-1.635,0.79v10.999c0.547,0.544 1.093,0.806 1.635,0.806 0.941,0 1.423-0.806 1.423-2.434v-7.698c0.001-1.632-0.482-2.463-1.423-2.463z" fill="#FFFFFF"/>
        <path d="m49.601,41.44c-1.093,0-1.642,0.831-1.642,2.502v1.671h3.274v-1.671c0.001-1.671-0.546-2.502-1.632-2.502z" fill="#FFFFFF"/>
        <g>
          <path d="m56.396,29.049c-2.055-2.139-4.357-2.148-5.414-2.271-7.556-0.54-18.889-0.54-18.889-0.54h-0.025c0,0-11.333,0-18.896,0.54-1.054,0.123-3.352,0.133-5.409,2.271-1.618,1.632-2.147,5.327-2.147,5.327s-0.536,4.343-0.536,8.685v4.073c0,4.341 0.536,8.686 0.536,8.686s0.529,3.695 2.147,5.321c2.057,2.139 4.753,2.072 5.952,2.295 4.324,0.413 18.365,0.538 18.365,0.538s11.347-0.016 18.903-0.562c1.057-0.121 3.359-0.133 5.414-2.271 1.619-1.626 2.147-5.321 2.147-5.321s0.536-4.345 0.536-8.686v-4.073c0-4.342-0.536-8.685-0.536-8.685s-0.529-3.695-2.148-5.327zm-39.417,27.706h-3.642v-20.802h-3.851v-3.406h11.414v3.406h-3.92v20.802zm12.912,0h-3.278v-1.969c-1.299,1.489-2.54,2.221-3.742,2.221-1.054,0-1.781-0.432-2.112-1.346-0.178-0.546-0.286-1.409-0.286-2.683v-14.261h3.275v13.28c0,0.765 0,1.164 0.024,1.27 0.083,0.507 0.336,0.769 0.771,0.769 0.658,0 1.341-0.507 2.069-1.533v-13.786h3.278v18.038zm12.44-5.409c0,1.663-0.11,2.866-0.331,3.631-0.438,1.344-1.313,2.03-2.613,2.03-1.168,0-2.294-0.647-3.387-1.999v1.747h-3.277v-24.208h3.277v7.905c1.056-1.299 2.179-1.956 3.387-1.956 1.299,0 2.174,0.688 2.613,2.036 0.221,0.729 0.331,1.918 0.331,3.628v7.186zm12.179-3.016h-6.55v3.199c0,1.671 0.549,2.506 1.673,2.506 0.806,0 1.275-0.44 1.463-1.311 0.029-0.178 0.073-0.908 0.073-2.219h3.341v0.479c0,1.051-0.043,1.776-0.071,2.106-0.108,0.723-0.368,1.378-0.766,1.955-0.906,1.312-2.25,1.96-3.963,1.96-1.711,0-3.014-0.618-3.96-1.853-0.696-0.902-1.051-2.326-1.051-4.241v-6.319c0-1.927 0.318-3.333 1.012-4.249 0.946-1.234 2.249-1.849 3.922-1.849 1.643,0 2.947,0.614 3.863,1.849 0.685,0.916 1.015,2.322 1.015,4.249v3.738z" fill="#FFFFFF"/>
          <path d="m23.436,24.434v-9.908l4.412-14.552h-3.71l-2.503,9.605-2.605-9.605h-3.863c0.777,2.268 1.581,4.544 2.356,6.816 1.174,3.411 1.91,5.982 2.244,7.735v9.908h3.669z" fill="#FFFFFF"/>
          <path d="m32.047,24.685c1.656,0 2.942-0.624 3.858-1.864 0.692-0.91 1.029-2.346 1.029-4.287v-6.387c0-1.945-0.337-3.367-1.029-4.289-0.917-1.25-2.202-1.87-3.858-1.87-1.654,0-2.943,0.62-3.854,1.87-0.707,0.922-1.034,2.344-1.034,4.289v6.387c0,1.941 0.327,3.377 1.034,4.287 0.911,1.24 2.2,1.864 3.854,1.864zm-1.581-13.199c0-1.686 0.514-2.529 1.581-2.529 1.062,0 1.573,0.844 1.573,2.529v7.669c0,1.687-0.511,2.53-1.573,2.53-1.067,0-1.581-0.844-1.581-2.53v-7.669z" fill="#FFFFFF"/>
          <path d="m48.988,24.434v-18.231h-3.308v13.935c-0.733,1.034-1.427,1.548-2.088,1.548-0.445,0-0.708-0.265-0.777-0.773-0.042-0.109-0.042-0.51-0.042-1.285v-13.425h-3.299v14.418c0,1.289 0.108,2.161 0.293,2.711 0.332,0.92 1.068,1.353 2.133,1.353 1.204,0 2.46-0.732 3.781-2.24v1.989h3.307z" fill="#FFFFFF"/>
        </g>
      </g>
    </g>
  </g>
</svg>
